# xmcd
#
# Track frame offsets:
#	150
#	10667
#	22987
#	34142
#	45845
#	57965
#	69750
#	81390
#	92512
#	102865
#
# Disc length: 1593 seconds
#
# Revision: 1
# Processed by: cddbd v1.5.1PL0 Copyright (c) Steve Scherf et al.
# Submitted via: audiograbber 1.83.01
#
DISCID=6706370a
DTITLE=John Hartford and Mark Howard - Cadillac Rag
DYEAR=1992
DGENRE=Bluegrass
TTITLE0=All American Rodeo Reel
TTITLE1=Cadillac Rag
TTITLE2=Time To Get Together
TTITLE3=Old John Hartford's Walkaround
TTITLE4=Alaskan Hornpipe
TTITLE5=Stones River
TTITLE6=Nickajacks Lament
TTITLE7=Rose Of Gilroy
TTITLE8=Boy Unloading Crossties
TTITLE9=Fritz Waltz
EXTD=The Hartford String Band is Credited in the fron cover also.
EXTT0=
EXTT1=
EXTT2=
EXTT3=
EXTT4=
EXTT5=
EXTT6=
EXTT7=
EXTT8=
EXTT9=
PLAYORDER=
